<svg width="400" height="400" viewBox="0 0 400 400" fill="none" xmlns="http://www.w3.org/2000/svg">
  <rect width="400" height="400" fill="#F5F5F5"/>
  <g transform="translate(50, 50)">
    <!-- Book 1 -->
    <rect x="0" y="0" width="120" height="160" fill="#0a6e5c" rx="4"/>
    <rect x="10" y="20" width="100" height="8" fill="#ffffff" rx="2"/>
    <rect x="10" y="35" width="80" height="6" fill="#ffffff" rx="2" opacity="0.8"/>
    <rect x="10" y="45" width="90" height="6" fill="#ffffff" rx="2" opacity="0.8"/>
    
    <!-- Book 2 -->
    <rect x="140" y="20" width="120" height="160" fill="#b88a44" rx="4"/>
    <rect x="150" y="40" width="100" height="8" fill="#ffffff" rx="2"/>
    <rect x="150" y="55" width="80" height="6" fill="#ffffff" rx="2" opacity="0.8"/>
    <rect x="150" y="65" width="90" height="6" fill="#ffffff" rx="2" opacity="0.8"/>
    
    <!-- Book 3 -->
    <rect x="70" y="40" width="120" height="160" fill="#0a6e5c" rx="4" opacity="0.9"/>
    <rect x="80" y="60" width="100" height="8" fill="#ffffff" rx="2"/>
    <rect x="80" y="75" width="80" height="6" fill="#ffffff" rx="2" opacity="0.8"/>
    <rect x="80" y="85" width="90" height="6" fill="#ffffff" rx="2" opacity="0.8"/>
  </g>
  <text x="200" y="350" font-family="Arial, sans-serif" font-size="24" fill="#0a6e5c" text-anchor="middle" font-weight="bold">مكتبة كتب</text>
</svg>

























